<?xml version="1.0" encoding="UTF-8"?>
<svg version="1.1" xmlns="http://www.w3.org/2000/svg" width="640" height="180">
<path d="M0 0 C12.21 0 24.42 0 37 0 C37 1.98 37 3.96 37 6 C34.36 6.99 31.72 7.98 29 9 C29.55785065 15.13938891 30.56142869 20.79808371 32.25 26.71875 C32.46817383 27.50270142 32.68634766 28.28665283 32.91113281 29.09436035 C33.36843551 30.7321288 33.8290814 32.36896723 34.29296875 34.00488281 C35.005467 36.51929306 35.70663648 39.03666509 36.40625 41.5546875 C36.85351396 43.15122467 37.30140749 44.74758562 37.75 46.34375 C37.96043945 47.09781128 38.17087891 47.85187256 38.38769531 48.62878418 C39.15745234 52.09516826 39.15745234 52.09516826 41 55 C41.33733154 53.8668335 41.67466309 52.73366699 42.0222168 51.56616211 C43.29646349 47.28808646 44.57393608 43.01097935 45.85229492 38.73413086 C46.40100179 36.89682097 46.94887909 35.0592631 47.49584961 33.22143555 C50.8122605 22.08060519 54.23284851 10.99763492 58 0 C60.97 0 63.94 0 67 0 C72.39592217 14.50452531 77.76854684 29.01277517 82.6875 43.6875 C83.02587891 44.68910156 83.36425781 45.69070312 83.71289062 46.72265625 C84.01775391 47.64304688 84.32261719 48.5634375 84.63671875 49.51171875 C84.90186279 50.31053467 85.16700684 51.10935059 85.44018555 51.93237305 C86 54 86 54 86 57 C86.66 57 87.32 57 88 57 C88.07992187 55.70707031 88.15984375 54.41414063 88.2421875 53.08203125 C89.1139797 44.34100523 91.57272383 35.85337837 93.71240234 27.35424805 C94.2781287 25.09633854 94.8310824 22.83558228 95.3828125 20.57421875 C95.55982697 19.88768723 95.73684143 19.2011557 95.91921997 18.49382019 C96.84729217 14.66334221 97.12719945 11.80052097 96 8 C93.36 7.34 90.72 6.68 88 6 C88 4.02 88 2.04 88 0 C97.9 0 107.8 0 118 0 C118 1.98 118 3.96 118 6 C116.9275 6.12375 115.855 6.2475 114.75 6.375 C112.23009301 7.11398403 111.26048639 7.56557322 109.89433289 9.84397888 C107.13373464 17.19765005 105.08331341 24.67911235 103.14453125 32.28515625 C102.79459168 33.63627749 102.44396781 34.98722165 102.09269714 36.33799744 C101.1784699 39.85913152 100.27145081 43.38207602 99.36663818 46.90563965 C97.90978196 52.57613035 96.44426019 58.2443679 94.97403526 63.91140556 C94.46283582 65.88771563 93.95627703 67.86517453 93.45014954 69.8427887 C93.1428038 71.03170212 92.83545807 72.22061554 92.51879883 73.44555664 C92.24884598 74.49683243 91.97889313 75.54810822 91.70075989 76.63124084 C91 79 91 79 90 80 C85.66684941 80.1438629 81.33487639 80.04208618 77 80 C72.51419085 69.76943212 68.85135645 59.2954171 65.1875 48.75 C63.145625 42.8925 61.10375 37.035 59 31 C54.05 47.17 49.1 63.34 44 80 C39.05 80 34.1 80 29 80 C26.18308907 72.86759704 24.01233595 65.58516326 21.83984375 58.234375 C21.44571006 56.91007185 21.05121828 55.58587522 20.65638733 54.26177979 C19.20233393 49.38309806 17.75369544 44.50281394 16.30657959 39.62207031 C15.07845564 35.48002212 13.84745575 31.33885291 12.61221504 27.1989212 C12.03659157 25.26543784 11.46526731 23.33071732 10.89402771 21.39593506 C10.54348831 20.2208136 10.19294891 19.04569214 9.83178711 17.83496094 C9.52550888 16.80207947 9.21923065 15.769198 8.90367126 14.70501709 C8.09576728 12.28666632 7.35973391 10.15559471 6 8 C2.95800528 6.70768358 2.95800528 6.70768358 0 6 C0 4.02 0 2.04 0 0 Z " fill="#5A6E39" transform="translate(40,41)"/>
<path d="M0 0 C0.69029297 -0.01160156 1.38058594 -0.02320313 2.09179688 -0.03515625 C7.66167501 -0.00347922 11.66467241 1.37681034 15.9375 4.9375 C17.0625 6.375 17.0625 6.375 17.0625 8.375 C17.7225 8.375 18.3825 8.375 19.0625 8.375 C19.26875 7.7975 19.475 7.22 19.6875 6.625 C21.64509732 3.42165894 23.78300792 2.19110317 27.0625 0.375 C29.89888957 -0.01385986 32.24812874 -0.18848206 35.0625 -0.125 C36.09117187 -0.14820313 36.09117187 -0.14820313 37.140625 -0.171875 C42.24688095 -0.13289595 45.12499576 1.21103795 49.0625 4.375 C54.12946565 9.8528007 54.20837908 14.25863216 54.30859375 21.5 C54.34151948 23.1093807 54.37473133 24.71875557 54.40820312 26.328125 C54.45566377 28.85608083 54.5001396 31.38401088 54.53930664 33.91210938 C54.57904556 36.35831352 54.63056785 38.80405283 54.68359375 41.25 C54.6920079 42.0042627 54.70042206 42.75852539 54.70909119 43.53564453 C54.81540467 48.77599545 54.81540467 48.77599545 57.0625 53.375 C59.60020003 54.65754644 59.60020003 54.65754644 62.0625 55.375 C62.0625 57.355 62.0625 59.335 62.0625 61.375 C53.8125 61.375 45.5625 61.375 37.0625 61.375 C37.00642578 57.20037109 37.00642578 57.20037109 36.94921875 52.94140625 C36.90289559 50.22070841 36.85170134 47.50014229 36.80004883 44.77954102 C36.76696816 42.90104296 36.73888473 41.02244954 36.71606445 39.14379883 C36.68220614 36.43009111 36.62987785 33.71724424 36.57421875 31.00390625 C36.56782883 30.17540665 36.5614389 29.34690704 36.55485535 28.49330139 C36.41083809 22.67161155 35.18302033 17.79120099 33.0625 12.375 C29.75682511 11.52112895 29.75682511 11.52112895 26.0625 11.375 C22.66487842 13.57886265 21.50371878 16.16662368 20.46166992 20.01171875 C19.53711564 25.48553248 19.82136129 31.09174343 19.875 36.625 C19.87564453 37.90375 19.87628906 39.1825 19.87695312 40.5 C19.76620935 47.04181286 19.76620935 47.04181286 21.0625 53.375 C24.07097418 54.60020264 24.07097418 54.60020264 27.0625 55.375 C27.0625 57.355 27.0625 59.335 27.0625 61.375 C18.8125 61.375 10.5625 61.375 2.0625 61.375 C2.01351562 58.6525 1.96453125 55.93 1.9140625 53.125 C1.85994137 50.46723271 1.80267777 47.80955023 1.74511719 45.15185547 C1.70700427 43.31500658 1.67212161 41.47808754 1.640625 39.64111328 C1.59458774 36.98965506 1.53666016 34.33867244 1.4765625 31.6875 C1.46501129 30.87571289 1.45346008 30.06392578 1.44155884 29.22753906 C1.29318159 23.40134453 0.84264864 17.46683711 -2.125 12.3125 C-5.29051692 10.67516366 -7.61935724 11.42695921 -10.9375 12.375 C-15.17516042 17.46019251 -15.06134139 23.28154249 -15.03515625 29.64453125 C-15.03303383 30.66603523 -15.03303383 30.66603523 -15.03086853 31.70817566 C-15.02530298 33.86799647 -15.01275703 36.02771089 -15 38.1875 C-14.99498054 39.65820162 -14.99041841 41.12890488 -14.98632812 42.59960938 C-14.97534488 46.1914404 -14.95810422 49.7832098 -14.9375 53.375 C-12.6275 54.035 -10.3175 54.695 -7.9375 55.375 C-7.9375 57.355 -7.9375 59.335 -7.9375 61.375 C-19.1575 61.375 -30.3775 61.375 -41.9375 61.375 C-41.9375 59.395 -41.9375 57.415 -41.9375 55.375 C-40.2359375 54.7871875 -40.2359375 54.7871875 -38.5 54.1875 C-34.81223087 52.83653353 -34.81223087 52.83653353 -34.2253418 50.23242188 C-33.8760011 46.76449689 -33.77522657 43.32568007 -33.76953125 39.84375 C-33.76620285 39.13021362 -33.76287445 38.41667725 -33.75944519 37.68151855 C-33.75440175 36.17879884 -33.75203606 34.67606801 -33.75219727 33.17333984 C-33.75000698 30.88229903 -33.73181399 28.59173727 -33.71289062 26.30078125 C-33.70995686 24.83593914 -33.70797195 23.37109475 -33.70703125 21.90625 C-33.69984573 21.22590698 -33.69266022 20.54556396 -33.68525696 19.84460449 C-33.70392226 15.93656142 -34.0136603 12.81460425 -35.9375 9.375 C-38.96732306 8.00310173 -38.96732306 8.00310173 -41.9375 7.375 C-41.9375 5.395 -41.9375 3.415 -41.9375 1.375 C-37.95834841 1.34613016 -33.97922347 1.32824594 -30 1.3125 C-28.86369141 1.30412109 -27.72738281 1.29574219 -26.55664062 1.28710938 C-25.47705078 1.28388672 -24.39746094 1.28066406 -23.28515625 1.27734375 C-21.78480835 1.26948853 -21.78480835 1.26948853 -20.25415039 1.26147461 C-17.9375 1.375 -17.9375 1.375 -16.9375 2.375 C-16.89686168 4.04117115 -16.894779 5.70888095 -16.9375 7.375 C-16.2775 7.375 -15.6175 7.375 -14.9375 7.375 C-14.5971875 6.4778125 -14.5971875 6.4778125 -14.25 5.5625 C-10.97700862 0.10751437 -5.84704866 -0.09772226 0 0 Z " fill="#5A6E39" transform="translate(373.9375,58.625)"/>
<path d="M0 0 C0.89847656 -0.01160156 1.79695313 -0.02320313 2.72265625 -0.03515625 C9.56443163 -0.0052795 15.76277023 0.70980259 20.875 5.6875 C24.35008649 11.43475843 24.81968927 16.73551985 24.9140625 23.2734375 C24.93342865 24.10839752 24.9527948 24.94335754 24.9727478 25.80361938 C25.03219614 28.45231126 25.07878894 31.10104743 25.125 33.75 C25.16321182 35.55340364 25.20226539 37.35678966 25.2421875 39.16015625 C25.33786881 43.56495984 25.42202711 47.9698488 25.5 52.375 C27.48 53.365 29.46 54.355 31.5 55.375 C31.5 57.355 31.5 59.335 31.5 61.375 C24.24 61.375 16.98 61.375 9.5 61.375 C8.84 59.395 8.18 57.415 7.5 55.375 C6.77683594 56.00728516 6.77683594 56.00728516 6.0390625 56.65234375 C5.40742188 57.20019531 4.77578125 57.74804688 4.125 58.3125 C3.49851562 58.85777344 2.87203125 59.40304688 2.2265625 59.96484375 C-1.19893813 62.76259426 -3.88799515 62.56978475 -8.25 62.625 C-9.46171875 62.65078125 -10.6734375 62.6765625 -11.921875 62.703125 C-16.87863277 62.24857516 -20.14867622 60.65125024 -23.75 57.25 C-27.09270887 51.75840686 -27.94063501 46.53113476 -26.9375 40.1875 C-25.73729632 35.32629768 -24.25151111 32.71873816 -20.5 29.375 C-14.30308544 26.501266 -9.27189358 25.98465526 -2.5 26.1875 C-1.19482422 26.20780273 -1.19482422 26.20780273 0.13671875 26.22851562 C2.25808627 26.26348322 4.37912974 26.3172747 6.5 26.375 C6.38556397 24.2910597 6.25804453 22.20783507 6.125 20.125 C6.02058594 18.38476562 6.02058594 18.38476562 5.9140625 16.609375 C5.53477682 13.64665287 5.16543243 11.82347785 3.5 9.375 C1.09889783 8.29475342 1.09889783 8.29475342 -1.5 8.375 C-3.76534506 9.63352503 -4.35781825 10.92357294 -5.125 13.359375 C-5.63384815 15.35236358 -6.07126744 17.36325491 -6.5 19.375 C-12.28450072 19.72207004 -16.46563531 19.64733705 -21.5 16.375 C-22.92662219 13.52175563 -22.81033868 11.54045451 -22.5 8.375 C-20.1194912 4.10992173 -17.38824837 2.60448926 -12.84960938 0.98803711 C-8.59021663 -0.12328201 -4.37706937 -0.05651883 0 0 Z M-7.1171875 36.07421875 C-8.8853563 39.01617192 -8.90038119 41.02372972 -8.875 44.4375 C-8.88273437 45.48035156 -8.89046875 46.52320313 -8.8984375 47.59765625 C-8.72188648 50.37323643 -8.72188648 50.37323643 -7.15625 52.21484375 C-4.48170677 54.08828559 -2.67254355 53.88260697 0.5 53.375 C3.60164769 50.82475635 5.22566416 49.19800753 6.5 45.375 C6.56937062 43.14681559 6.58457084 40.91665476 6.5625 38.6875 C6.55347656 37.50800781 6.54445313 36.32851562 6.53515625 35.11328125 C6.52355469 34.20964844 6.51195312 33.30601563 6.5 32.375 C1.14417123 32.1649675 -3.23947521 31.99981091 -7.1171875 36.07421875 Z " fill="#5A6E39" transform="translate(469.5,58.625)"/>
<path d="M0 0 C0.89847656 -0.01160156 1.79695313 -0.02320313 2.72265625 -0.03515625 C9.56443163 -0.0052795 15.76277023 0.70980259 20.875 5.6875 C24.35008649 11.43475843 24.81968927 16.73551985 24.9140625 23.2734375 C24.93342865 24.10839752 24.9527948 24.94335754 24.9727478 25.80361938 C25.03219614 28.45231126 25.07878894 31.10104743 25.125 33.75 C25.16321182 35.55340364 25.20226539 37.35678966 25.2421875 39.16015625 C25.33786881 43.56495984 25.42202711 47.9698488 25.5 52.375 C27.48 53.365 29.46 54.355 31.5 55.375 C31.5 57.355 31.5 59.335 31.5 61.375 C24.24 61.375 16.98 61.375 9.5 61.375 C8.84 59.395 8.18 57.415 7.5 55.375 C6.77683594 56.00728516 6.77683594 56.00728516 6.0390625 56.65234375 C5.40742188 57.20019531 4.77578125 57.74804688 4.125 58.3125 C3.49851563 58.85777344 2.87203125 59.40304688 2.2265625 59.96484375 C-1.19893813 62.76259426 -3.88799515 62.56978475 -8.25 62.625 C-9.46171875 62.65078125 -10.6734375 62.6765625 -11.921875 62.703125 C-16.87863277 62.24857516 -20.14867622 60.65125024 -23.75 57.25 C-27.09270887 51.75840686 -27.94063501 46.53113476 -26.9375 40.1875 C-25.73729632 35.32629768 -24.25151111 32.71873816 -20.5 29.375 C-14.30308544 26.501266 -9.27189358 25.98465526 -2.5 26.1875 C-1.19482422 26.20780273 -1.19482422 26.20780273 0.13671875 26.22851562 C2.25808627 26.26348322 4.37912974 26.3172747 6.5 26.375 C6.38556397 24.2910597 6.25804453 22.20783507 6.125 20.125 C6.02058594 18.38476562 6.02058594 18.38476562 5.9140625 16.609375 C5.53477682 13.64665287 5.16543243 11.82347785 3.5 9.375 C1.09889783 8.29475342 1.09889783 8.29475342 -1.5 8.375 C-3.76534506 9.63352503 -4.35781825 10.92357294 -5.125 13.359375 C-5.63384815 15.35236358 -6.07126744 17.36325491 -6.5 19.375 C-12.28450072 19.72207004 -16.46563531 19.64733705 -21.5 16.375 C-22.92662219 13.52175563 -22.81033868 11.54045451 -22.5 8.375 C-20.1194912 4.10992173 -17.38824837 2.60448926 -12.84960938 0.98803711 C-8.59021663 -0.12328201 -4.37706937 -0.05651883 0 0 Z M-7.1171875 36.07421875 C-8.8853563 39.01617192 -8.90038119 41.02372972 -8.875 44.4375 C-8.88273437 45.48035156 -8.89046875 46.52320313 -8.8984375 47.59765625 C-8.72188648 50.37323643 -8.72188648 50.37323643 -7.15625 52.21484375 C-4.48170677 54.08828559 -2.67254355 53.88260697 0.5 53.375 C3.60164769 50.82475635 5.22566416 49.19800753 6.5 45.375 C6.56937062 43.14681559 6.58457084 40.91665476 6.5625 38.6875 C6.55347656 37.50800781 6.54445313 36.32851562 6.53515625 35.11328125 C6.52355469 34.20964844 6.51195312 33.30601563 6.5 32.375 C1.14417123 32.1649675 -3.23947521 31.99981091 -7.1171875 36.07421875 Z " fill="#5A6E39" transform="translate(188.5,58.625)"/>
<path d="M0 0 C0.99 0 1.98 0 3 0 C3 2.64 3 5.28 3 8 C7.62 8 12.24 8 17 8 C17.09933567 22.52508189 17.08239188 37.04189727 16.6875 51.5625 C16.66502197 52.76229492 16.64254395 53.96208984 16.61938477 55.19824219 C16.58385498 56.30973633 16.5483252 57.42123047 16.51171875 58.56640625 C16.48553467 59.54552979 16.45935059 60.52465332 16.43237305 61.53344727 C15.9314641 64.39097585 15.35691101 65.34301805 13 67 C9.8125 67.1875 9.8125 67.1875 7 67 C7 67.66 7 68.32 7 69 C6.401875 68.649375 5.80375 68.29875 5.1875 67.9375 C2.89186786 66.66695302 2.89186786 66.66695302 0 68 C-4.04365568 68.25810568 -6.49300371 67.9872979 -10 66 C-11.32 65.67 -12.64 65.34 -14 65 C-13.67 46.19 -13.34 27.38 -13 8 C-8.71 8 -4.42 8 0 8 C0 5.36 0 2.72 0 0 Z " fill="#8A6A3D" transform="translate(299,56)"/>
<path d="M0 0 C1.20527344 -0.01675781 2.41054688 -0.03351562 3.65234375 -0.05078125 C7.2964895 0.33742672 9.16346822 1.11820523 12.0625 3.3125 C13.80015543 6.78781087 13.65835352 10.5213001 13.0625 14.3125 C10.53281526 17.59425318 8.98518669 19.00493777 5.0625 20.3125 C2.72950175 20.35204234 0.39541811 20.35651732 -1.9375 20.3125 C-2.4325 16.3525 -2.4325 16.3525 -2.9375 12.3125 C-5.81163125 11.97852213 -5.81163125 11.97852213 -8.9375 12.3125 C-12.46246076 15.33389494 -13.24861332 19.88722319 -13.9375 24.3125 C-14.17532544 29.3155351 -14.12625477 34.30529815 -14.0625 39.3125 C-14.05244978 40.67317049 -14.04332754 42.03384817 -14.03515625 43.39453125 C-14.0117082 46.70070647 -13.97888856 50.0065088 -13.9375 53.3125 C-10.6375 53.9725 -7.3375 54.6325 -3.9375 55.3125 C-3.9375 57.2925 -3.9375 59.2725 -3.9375 61.3125 C-16.1475 61.3125 -28.3575 61.3125 -40.9375 61.3125 C-40.9375 59.3325 -40.9375 57.3525 -40.9375 55.3125 C-39.2359375 54.7246875 -39.2359375 54.7246875 -37.5 54.125 C-33.8086004 52.77335621 -33.8086004 52.77335621 -33.2253418 50.15405273 C-32.66746244 44.6467094 -32.75158307 39.12260128 -32.75219727 33.59301758 C-32.75001029 31.38538341 -32.7318258 29.1782491 -32.71289062 26.97070312 C-32.70995614 25.55468919 -32.70797171 24.13867291 -32.70703125 22.72265625 C-32.70292236 21.44527588 -32.69881348 20.16789551 -32.69458008 18.85180664 C-32.93952039 15.28306317 -33.46999145 12.57184347 -34.9375 9.3125 C-37.95529872 7.86089062 -37.95529872 7.86089062 -40.9375 7.3125 C-40.9375 5.3325 -40.9375 3.3525 -40.9375 1.3125 C-33.0175 1.3125 -25.0975 1.3125 -16.9375 1.3125 C-16.2775 3.2925 -15.6175 5.2725 -14.9375 7.3125 C-14.36 6.52875 -13.7825 5.745 -13.1875 4.9375 C-9.21491713 0.30281998 -6.01832755 0.01926892 0 0 Z " fill="#5A6E39" transform="translate(265.9375,58.6875)"/>
<path d="M0 0 C3.14167474 1.72792111 3.94081123 3.16307113 5.5 6.375 C6.34740781 13.01302781 6.49679885 19.74987569 2.5 25.375 C2.04625 26.014375 1.5925 26.65375 1.125 27.3125 C-0.5 28.375 -0.5 28.375 -3 28.5 C-5.5 27.375 -5.5 27.375 -7.3125 24.625 C-9.68562553 18.06161281 -9.72993557 9.63578739 -7.1875 3.125 C-5.09901855 -0.27845126 -3.91507803 -0.97876951 0 0 Z " fill="#F4C42F" transform="translate(301.5,16.625)"/>
<path d="M0 0 C0.99 0 1.98 0 3 0 C3.024759 4.48404564 3.04288799 8.96805481 3.05493164 13.45214844 C3.05995365 14.97689507 3.0667725 16.50163691 3.07543945 18.02636719 C3.08759849 20.22071519 3.09324968 22.4149994 3.09765625 24.609375 C3.10289307 25.92905273 3.10812988 27.24873047 3.11352539 28.60839844 C3.02311329 31.30948418 2.81881355 33.4500616 2 36 C1.01 36 0.02 36 -1 36 C-1.024759 31.51595436 -1.04288799 27.03194519 -1.05493164 22.54785156 C-1.05995365 21.02310493 -1.0667725 19.49836309 -1.07543945 17.97363281 C-1.08759849 15.77928481 -1.09324968 13.5850006 -1.09765625 11.390625 C-1.10289307 10.07094727 -1.10812988 8.75126953 -1.11352539 7.39160156 C-1.02311329 4.69051582 -0.81881355 2.5499384 0 0 Z " fill="#7B5D34" transform="translate(290,84)"/>
<path d="M0 0 C0.66 0 1.32 0 2 0 C2.02483806 4.3050091 2.04292512 8.60997951 2.05493164 12.91503906 C2.05994045 14.37761157 2.06674938 15.84017911 2.07543945 17.30273438 C2.08765698 19.41277291 2.09326295 21.52274487 2.09765625 23.6328125 C2.10289307 24.90012207 2.10812988 26.16743164 2.11352539 27.47314453 C2.00813747 30.747196 1.62450226 33.78889152 1 37 C-0.32 36.34 -1.64 35.68 -3 35 C-2.67 34.34 -2.34 33.68 -2 33 C-1.93850815 31.03740027 -1.94007109 29.07266743 -1.97265625 27.109375 C-1.98490234 25.92472656 -1.99714844 24.74007812 -2.00976562 23.51953125 C-2.04470414 21.02207432 -2.08371504 18.52467078 -2.12695312 16.02734375 C-2.13791016 14.83753906 -2.14886719 13.64773437 -2.16015625 12.421875 C-2.17699463 11.33487305 -2.19383301 10.24787109 -2.21118164 9.12792969 C-1.98589993 5.791156 -1.18653001 3.11453154 0 0 Z " fill="#7B5D35" transform="translate(305,88)"/>
<path d="M0 0 C0.99 0 1.98 0 3 0 C3 2.64 3 5.28 3 8 C2.01 8 1.02 8 0 8 C0 5.36 0 2.72 0 0 Z " fill="#3E3E3E" transform="translate(299,56)"/>
</svg>
